<?xml version="1.0" encoding="utf-8"?>
<!-- Generator: Adobe Illustrator 17.0.0, SVG Export Plug-In . SVG Version: 6.00 Build 0)  -->
<!DOCTYPE svg PUBLIC "-//W3C//DTD SVG 1.1//EN" "http://www.w3.org/Graphics/SVG/1.1/DTD/svg11.dtd">
<svg version="1.1" id="组_1_1_" xmlns="http://www.w3.org/2000/svg" xmlns:xlink="http://www.w3.org/1999/xlink" x="0px" y="0px"
	 width="400px" height="400px" viewBox="0 0 400 400" enable-background="new 0 0 400 400" xml:space="preserve">
<g id="_x30_4_1_">
	<g id="圆角矩形_4">
		<g>
			<path fill-rule="evenodd" clip-rule="evenodd" fill="#2A6DAB" d="M135.046,278.56l-11.324,11.304l162.069-161.786L235.631,77.83
				L73.562,239.616l11.324-11.304L135.046,278.56z M297.115,116.774l36.802-36.737c7.817-7.804,7.828-20.467,0.025-28.284
				l-21.901-21.94c-7.804-7.817-20.467-7.828-28.284-0.025l-46.125,46.044l9.323-9.307L297.115,116.774z M297.115,116.774
				L297.115,116.774l-3.238,3.232L297.115,116.774z M367.5,340h-335c-9.665,0-17.5,7.835-17.5,17.5S22.835,375,32.5,375h335
				c9.665,0,17.5-7.835,17.5-17.5S377.165,340,367.5,340z M73.562,239.616l-14.435,64.806l64.595-14.557L73.562,239.616z"/>
		</g>
	</g>
</g>
</svg>
