<?xml version="1.0" encoding="utf-8"?>
<!-- Generator: Adobe Illustrator 17.0.0, SVG Export Plug-In . SVG Version: 6.00 Build 0)  -->
<!DOCTYPE svg PUBLIC "-//W3C//DTD SVG 1.1//EN" "http://www.w3.org/Graphics/SVG/1.1/DTD/svg11.dtd">
<svg version="1.1" id="组_1_1_" xmlns="http://www.w3.org/2000/svg" xmlns:xlink="http://www.w3.org/1999/xlink" x="0px" y="0px"
	 width="400px" height="400px" viewBox="0 0 400 400" enable-background="new 0 0 400 400" xml:space="preserve">
<g id="_x30_2_1_">
	<g id="clock_副本">
		<g>
			<path fill-rule="evenodd" clip-rule="evenodd" fill="#2A6DAB" d="M200.003,64.055c-75.081,0-135.945,60.864-135.945,135.946
				c0,75.083,60.864,135.944,135.945,135.944c75.081,0,135.946-60.862,135.946-135.944
				C335.95,124.919,275.084,64.055,200.003,64.055z M244.924,186.769c7.246,0,13.12,5.872,13.12,13.118
				c0,7.247-5.874,13.123-13.12,13.123h-30.615v17.492h39.362c7.247,0,13.121,5.875,13.121,13.122
				c0,7.246-5.875,13.122-13.121,13.122h-39.362v30.614c0,7.246-5.874,13.119-13.12,13.119c-7.247,0-13.121-5.873-13.121-13.119
				v-30.614h-39.362c-7.247,0-13.121-5.875-13.121-13.122c0-7.246,5.874-13.122,13.121-13.122h39.362V213.01h-30.615
				c-7.247,0-13.121-5.876-13.121-13.123c0-7.246,5.874-13.118,13.121-13.118h30.615v-4.228l-59.225-38.653l10.393-29.842
				L200,153.706l60.765-39.659l10.392,29.842l-56.848,37.102v5.778H244.924z M200,20.997c-98.859,0-179.001,80.14-179.001,179
				c0,98.859,80.142,179,179.001,179s178.999-80.141,178.999-179C378.999,101.137,298.859,20.997,200,20.997z M200.015,353.404
				c-84.34,0-152.713-68.366-152.713-152.711c0-84.338,68.373-152.708,152.713-152.708c84.34,0,152.712,68.37,152.712,152.708
				C352.727,285.037,284.355,353.404,200.015,353.404z"/>
		</g>
	</g>
</g>
</svg>
