<?xml version="1.0" encoding="utf-8"?>
<!-- Generator: Adobe Illustrator 17.0.0, SVG Export Plug-In . SVG Version: 6.00 Build 0)  -->
<!DOCTYPE svg PUBLIC "-//W3C//DTD SVG 1.1//EN" "http://www.w3.org/Graphics/SVG/1.1/DTD/svg11.dtd">
<svg version="1.1" id="组_1_1_" xmlns="http://www.w3.org/2000/svg" xmlns:xlink="http://www.w3.org/1999/xlink" x="0px" y="0px"
	 width="400px" height="400px" viewBox="0 0 400 400" enable-background="new 0 0 400 400" xml:space="preserve">
<g id="_x30_3_1_">
	<g id="圆角矩形_1">
		<g>
			<path fill-rule="evenodd" clip-rule="evenodd" fill="#2A6DAB" d="M333,124h-21V35H92v89H70c-27.614,0-50,22.386-50,50
				c0,0,0,71.646,0,112h72v79h220v-79h71c0-40.269,0-112,0-112C383,146.386,360.614,124,333,124z M267,336H118c-2.209,0-4-1.791-4-4
				c0-2.209,1.791-4,4-4h149c2.209,0,4,1.791,4,4C271,334.209,269.209,336,267,336z M114,314c0-2.209,1.791-4,4-4h129
				c2.209,0,4,1.791,4,4c0,2.209-1.791,4-4,4H118C115.791,318,114,316.209,114,314z M267,299H118c-2.209,0-4-1.791-4-4
				c0-2.209,1.791-4,4-4h149c2.209,0,4,1.791,4,4C271,297.209,269.209,299,267,299z M337.5,190c-9.665,0-17.5-7.835-17.5-17.5
				s7.835-17.5,17.5-17.5s17.5,7.835,17.5,17.5S347.165,190,337.5,190z"/>
		</g>
	</g>
</g>
</svg>
