<?xml version="1.0" encoding="utf-8"?>
<!-- Generator: Adobe Illustrator 17.0.0, SVG Export Plug-In . SVG Version: 6.00 Build 0)  -->
<!DOCTYPE svg PUBLIC "-//W3C//DTD SVG 1.1//EN" "http://www.w3.org/Graphics/SVG/1.1/DTD/svg11.dtd">
<svg version="1.1" id="组_1_1_" xmlns="http://www.w3.org/2000/svg" xmlns:xlink="http://www.w3.org/1999/xlink" x="0px" y="0px"
	 width="400px" height="400px" viewBox="0 0 400 400" enable-background="new 0 0 400 400" xml:space="preserve">
<g id="theme">
	<g>
		<path fill-rule="evenodd" clip-rule="evenodd" fill="#2A6DAB" d="M75,341c-9.896,0-19-8.195-19-18V74c0-9.802,9.104-17,19-17h251
			c9.897,0,18,7.198,18,17v199.829l36,34.611V55c0-19.227-16.088-34.003-37.745-34.003H57.4c-21.656,0-36.401,13.491-36.401,34.938
			v284.489C20.999,360.205,34.783,376,57,376h253.169l-32.413-35H75z M374.999,336.64c-8.724-8.284-95.685-89.141-142.538-132.692
			l58.585-14.287l-72.32-37.058l19.931-81.698l-74.827,47.578L88.205,88.266l31.394,78.053l-46.805,70.355l82.6-16.282
			l36.936,70.723l14.837-60.654c38.917,41.537,107.131,114.36,133.12,142.223c10.873,10.837,22.147,0.926,22.147,0.926
			l13.553-14.313C375.987,359.297,387,348.027,374.999,336.64z"/>
	</g>
</g>
</svg>
